<svg width="38" height="28" viewBox="0 0 38 28" fill="none" xmlns="http://www.w3.org/2000/svg">
<path d="M3.01429 14.7939C1.55974 19.1575 5.32836 21.8512 6.81594 21.0749C9.95646 19.4358 7.09144 15.7856 5.32836 14.1327C6.38621 11.2236 4.88759 8.62306 4.00604 7.68642C5.21816 4.76631 6.48538 0.744267 3.01429 0.744267C-0.963663 0.744267 0.369671 5.97843 1.36141 7.68642C-0.886519 11.5211 1.52669 14.0225 3.01429 14.7939Z" fill="#768495"/>
<path d="M34.8304 14.6612C36.285 19.0248 32.5164 21.7185 31.0288 20.9422C27.8883 19.3031 30.7533 15.6529 32.5164 14C31.4585 11.0909 32.9571 8.49037 33.8387 7.55373C32.6266 4.63362 31.3593 0.611578 34.8304 0.611578C38.8084 0.611578 37.4751 5.84574 36.4833 7.55373C38.7312 11.3884 36.318 13.8898 34.8304 14.6612Z" fill="#768495"/>
<path d="M6.15479 7.52136C6.81594 7.25689 7.20162 4.43596 7.31181 3.05855C9.46057 11.1577 16.0721 18.761 19.0473 18.761C21.9353 18.761 27.8077 12.1495 30.287 2.56268C30.287 4.14946 31.1686 6.52962 31.6093 7.52136C30.4192 8.57921 30.2319 11.9291 30.287 13.4718C25.5267 18.2321 27.973 21.4057 29.7911 22.3974C26.2209 22.0007 25.108 24.8767 24.9978 26.3643L21.692 27.6866C19.7085 26.0999 17.119 27.0255 16.0721 27.6866L12.9316 26.3643C13.0639 23.1908 10.0115 22.3974 8.46883 22.3974C12.1713 19.7528 9.24018 15.345 7.31181 13.4718C8.23743 13.0751 6.92614 9.33954 6.15479 7.52136Z" fill="#768495"/>
</svg>
