<svg width="38" height="28" viewBox="0 0 38 28" fill="none" xmlns="http://www.w3.org/2000/svg">
<path d="M3.01429 13.5044C1.55974 9.14072 5.32836 6.44699 6.81594 7.22337C9.95646 8.86245 7.09144 12.5126 5.32836 14.1655C6.38621 17.0746 4.88759 19.6752 4.00604 20.6118C5.21816 23.5319 6.48538 27.5539 3.01429 27.5539C-0.963663 27.5539 0.369671 22.3198 1.36141 20.6118C-0.886519 16.7771 1.52669 14.2757 3.01429 13.5044Z" fill="#768495"/>
<path d="M34.8304 13.637C36.285 9.27341 32.5164 6.57968 31.0288 7.35606C27.8883 8.99514 30.7533 12.6453 32.5164 14.2982C31.4585 17.2073 32.9571 19.8079 33.8387 20.7445C32.6266 23.6646 31.3593 27.6866 34.8304 27.6866C38.8084 27.6866 37.4751 22.4525 36.4833 20.7445C38.7312 16.9098 36.318 14.4084 34.8304 13.637Z" fill="#768495"/>
<path d="M6.15479 20.7769C6.81594 21.0413 7.20162 23.8623 7.31181 25.2397C9.46057 17.1405 16.0721 9.53719 19.0473 9.53719C21.9353 9.53719 27.8077 16.1488 30.287 25.7355C30.287 24.1488 31.1686 21.7686 31.6093 20.7769C30.4192 19.719 30.2319 16.3691 30.287 14.8264C25.5267 10.0661 27.973 6.89256 29.7911 5.90083C26.2209 6.29752 25.108 3.42149 24.9978 1.93389L21.692 0.611572C19.7085 2.19835 17.119 1.27273 16.0721 0.611572L12.9316 1.93389C13.0639 5.10744 10.0115 5.90083 8.46883 5.90083C12.1713 8.54546 9.24018 12.9532 7.31181 14.8264C8.23743 15.2231 6.92614 18.9587 6.15479 20.7769Z" fill="#768495"/>
</svg>
